<svg version="1.1" id="Layer_1" xmlns="http://www.w3.org/2000/svg" xmlns:xlink="http://www.w3.org/1999/xlink" x="0px" y="0px"
	 width="100%" viewBox="0 0 1280 1280" enable-background="new 0 0 1280 1280" xml:space="preserve">
<path fill="#C2DA6C" opacity="1.000000" stroke="none" 
	d="
M675.000000,1281.000000 
	C450.000000,1281.000000 225.500000,1281.000000 1.000000,1281.000000 
	C1.000000,854.333313 1.000000,427.666656 1.000000,1.000000 
	C427.666656,1.000000 854.333313,1.000000 1281.000000,1.000000 
	C1281.000000,427.666656 1281.000000,854.333313 1281.000000,1281.000000 
	C1079.166626,1281.000000 877.333313,1281.000000 675.000000,1281.000000 
M962.595276,555.010620 
	C962.253601,554.728027 961.911926,554.445435 960.764465,554.110596 
	C958.655640,553.196533 956.623047,551.820496 954.423279,551.457214 
	C948.430908,550.467773 942.367920,549.906189 935.605408,548.969910 
	C934.144592,548.718323 932.690002,548.294495 931.221985,548.241638 
	C915.574524,547.678040 900.710083,551.171814 886.882080,558.213013 
	C856.681641,573.591003 838.511353,598.881897 830.302856,631.118835 
	C823.193481,659.039368 825.433960,686.715820 837.886475,712.957825 
	C848.756653,735.865417 865.085876,753.788696 888.378235,764.788391 
	C903.602966,771.978210 919.593506,775.010376 937.349243,774.010254 
	C939.339233,773.925476 941.408203,774.162170 943.304565,773.696228 
	C949.234497,772.239136 955.099243,770.516785 961.686401,768.683044 
	C966.155457,766.995117 971.008423,765.932556 975.006653,763.477722 
	C981.552429,759.458801 987.878601,754.918640 993.654419,749.863647 
	C997.879456,746.165771 1001.072693,741.289062 1004.839172,736.882385 
	C1004.839172,736.882385 1004.881897,736.763611 1005.511719,736.642578 
	C1006.412964,735.387939 1007.314270,734.133301 1008.617554,732.371948 
	C1008.716858,732.180603 1008.816101,731.989197 1009.554504,731.641602 
	C1011.078613,729.116882 1012.602722,726.592163 1014.569275,723.489197 
	C1014.731934,723.038147 1014.894592,722.587097 1015.722717,721.918274 
	C1017.160583,718.875610 1018.598450,715.832947 1020.426025,712.174988 
	C1020.635376,711.480896 1020.844727,710.786743 1021.655029,709.774353 
	C1022.745789,706.841492 1023.836548,703.908569 1025.314453,700.401001 
	C1026.396362,697.623474 1027.721069,694.913696 1028.518433,692.056702 
	C1032.056396,679.378845 1031.981567,666.384827 1031.627808,653.378723 
	C1031.171265,636.592957 1026.781372,620.632324 1019.112549,605.965088 
	C1011.647461,591.687195 1002.395386,578.346558 988.816772,568.832458 
	C981.370789,563.615417 974.396729,557.473572 965.007629,555.982117 
	C965.007629,555.982117 965.034607,556.062683 964.643677,555.598816 
	C964.069885,555.400513 963.496094,555.202209 963.008423,554.950500 
	C963.008423,554.950500 963.063843,555.035461 962.595276,555.010620 
M544.220947,705.565552 
	C544.442688,705.345703 544.612549,705.091187 545.333679,704.478638 
	C545.578735,704.258545 545.968567,704.081238 546.048218,703.812195 
	C551.235657,686.278381 555.555298,668.838440 553.973816,650.061768 
	C551.158142,616.632629 538.458130,588.552307 512.597351,566.929077 
	C504.571838,560.218506 495.788544,554.450867 484.514648,552.020325 
	C476.288086,547.892334 467.728241,545.027832 457.531586,545.226318 
	C452.039948,545.356812 446.468292,544.930481 441.069458,545.706543 
	C400.886871,551.482910 373.696167,574.509766 358.019287,610.997070 
	C345.428070,640.302551 345.340729,670.441711 356.098969,700.662415 
	C370.554535,741.269226 410.193146,774.631165 459.250793,770.924500 
	C468.981384,771.774536 477.427277,767.747192 486.161194,763.871826 
	C486.473297,763.838562 486.738220,763.686584 487.415802,762.802612 
	C488.384064,762.589966 489.352325,762.377319 490.726501,762.110352 
	C493.364716,761.520569 495.625732,760.362854 498.065735,759.043152 
	C510.532288,752.300354 521.038940,743.498413 529.582153,732.264526 
	C535.710144,724.206421 541.778931,716.110901 544.220947,705.565552 
M792.339233,756.133667 
	C771.184753,721.034790 762.336731,682.997986 765.933228,642.245056 
	C770.486633,590.649231 791.598511,547.201538 832.697998,515.064941 
	C870.494263,485.511230 913.493530,475.897491 960.386536,487.572968 
	C993.115051,495.721741 1019.876221,513.738098 1041.436157,539.585327 
	C1042.920776,541.365234 1044.539429,543.033142 1046.847412,545.583801 
	C1046.847412,541.645447 1046.964233,539.154053 1046.829468,536.676331 
	C1045.317871,508.909454 1044.042847,481.125977 1042.159424,453.383972 
	C1039.746460,417.841919 1037.430298,382.276093 1033.997559,346.824585 
	C1028.993408,295.142731 993.716492,255.611679 943.168091,244.109619 
	C919.684143,238.765961 895.743408,237.293121 871.708008,237.275299 
	C870.621887,237.274490 869.535583,237.642624 868.168274,237.889709 
	C868.783875,243.957184 869.676086,249.711807 869.906006,255.492783 
	C871.998169,308.085327 852.916992,352.263519 814.386597,387.312897 
	C771.441467,426.378235 719.966797,442.748749 662.144653,439.226471 
	C617.317993,436.495850 577.075073,421.384674 543.101257,391.946350 
	C497.587891,352.509094 476.258423,302.892365 483.824707,242.175400 
	C484.276337,238.550919 483.608582,237.069397 479.558136,237.144943 
	C458.556366,237.536636 437.690887,238.646576 416.975403,242.784241 
	C365.236938,253.118347 327.724091,291.227631 321.344940,343.664276 
	C317.026978,379.158203 315.531982,415.000641 312.980713,450.701996 
	C311.900848,465.813110 311.287567,480.959137 310.573700,496.094543 
	C309.373260,521.546082 308.258423,547.001587 307.137360,572.456848 
	C307.114288,572.980957 307.454437,573.521118 307.817657,574.654480 
	C308.697540,573.222961 309.261810,572.419434 309.711792,571.556335 
	C325.775604,540.743591 348.315948,516.101868 379.428589,500.140472 
	C425.422729,476.544617 471.764648,476.851501 517.516174,500.598389 
	C548.506287,516.683533 571.170349,541.486450 586.726685,572.543030 
	C609.733276,618.473267 613.612061,666.367126 598.270142,715.278015 
	C583.474609,762.446960 554.786194,798.775452 509.305786,819.737000 
	C465.328674,840.005615 421.147644,838.251831 378.379089,815.793640 
	C345.066528,798.300781 321.741364,770.963196 305.750977,737.156433 
	C305.072845,735.722717 304.368500,734.301392 303.676392,732.874268 
	C302.628021,735.660583 302.321198,738.275452 302.269440,740.895264 
	C301.887909,760.218323 301.487854,779.541504 301.226593,798.866394 
	C300.814362,829.356995 300.307831,859.848450 300.215973,890.340698 
	C300.141205,915.155396 298.626526,940.186523 301.278320,964.740662 
	C306.165985,1009.998291 331.938385,1041.046875 373.331696,1059.127563 
	C394.488403,1068.368896 417.270111,1070.277710 439.905182,1070.753418 
	C468.185791,1071.348022 496.534637,1071.007568 524.792480,1069.719482 
	C552.598328,1068.452148 578.028870,1059.333618 599.564941,1041.142822 
	C631.468079,1014.195129 645.120605,979.687866 641.214844,938.201233 
	C639.705444,922.168579 637.954468,906.158630 636.193176,888.962952 
	C637.612122,890.689209 638.365784,891.480591 638.978149,892.369324 
	C655.792480,916.768982 671.855347,941.729370 689.579895,965.448120 
	C712.108154,995.595032 738.138977,1022.488281 769.813416,1043.425415 
	C806.694641,1067.804443 846.784119,1079.375488 891.132507,1074.179932 
	C951.216431,1067.140869 995.012451,1036.211670 1022.999878,983.027893 
	C1043.127075,944.780518 1050.187500,903.087402 1051.699951,860.469116 
	C1052.780884,830.005554 1052.128906,799.480286 1052.223511,768.982483 
	C1052.227783,767.600159 1051.968018,766.217041 1051.717773,763.686462 
	C1050.021118,765.863220 1049.013062,767.099243 1048.066040,768.380066 
	C1035.145630,785.854736 1019.725525,800.669495 1000.984680,811.771545 
	C960.879333,835.529846 918.518799,840.050415 874.612122,824.628235 
	C839.167114,812.178284 812.516663,788.434875 792.339233,756.133667 
M767.267517,363.775208 
	C784.229797,352.880432 798.430908,339.085785 808.295227,321.522430 
	C843.005981,259.720062 840.359314,198.809250 802.815430,139.096603 
	C800.323181,135.132812 797.104431,131.625778 794.223633,127.906288 
	C793.295715,129.773102 793.510864,131.022263 793.585693,132.279785 
	C793.921021,137.911896 794.820862,143.590561 794.412842,149.171722 
	C793.188904,165.913544 785.280457,179.962646 773.771362,191.413910 
	C760.345703,204.772171 745.521851,216.715179 731.505676,229.492767 
	C717.866089,241.926987 703.059509,253.449448 691.295959,267.492126 
	C670.375732,292.465363 663.082458,322.525940 665.273743,354.839081 
	C665.750488,361.869293 667.268250,368.828949 668.536438,377.369385 
	C674.094238,374.242950 678.706055,372.308105 682.533020,369.355835 
	C690.040955,363.564056 697.263489,357.375397 704.337280,351.052429 
	C734.531433,324.062866 761.815002,294.548706 782.732117,259.602264 
	C786.000122,254.142441 789.013489,248.530228 792.144592,242.988480 
	C792.575012,243.127121 793.005371,243.265762 793.435730,243.404419 
	C792.650818,248.953674 792.178528,254.568741 791.026550,260.040741 
	C786.162659,283.146057 773.931030,302.407318 757.574707,318.713318 
	C740.852478,335.384125 722.813110,350.734863 705.325012,366.635681 
	C699.614868,371.827545 693.825195,376.932007 688.071960,382.076447 
	C688.321594,382.512726 688.571228,382.949005 688.820923,383.385284 
	C716.606262,384.716309 742.732300,379.067902 767.267517,363.775208 
M629.614563,371.972870 
	C634.783081,372.639496 639.951599,373.306122 646.043213,374.091827 
	C642.151184,352.577942 632.832336,334.463684 622.980347,316.795013 
	C613.153870,299.172089 601.898132,282.346130 591.032532,264.788696 
	C592.588684,265.489929 594.055298,266.074524 595.453003,266.793060 
	C604.570801,271.480133 611.529724,278.619873 617.396545,286.806335 
	C630.840759,305.565918 638.708862,327.028015 646.804443,348.366913 
	C648.801575,353.631042 650.923767,358.847748 652.988464,364.086243 
	C654.890991,361.217773 655.678467,358.694702 656.277466,356.127655 
	C664.678650,320.123932 658.932373,287.278595 632.364746,260.380829 
	C605.109985,232.787308 571.115234,225.774597 533.800049,231.709000 
	C527.008484,232.789093 520.381348,234.903748 513.219360,236.652924 
	C514.107788,237.656784 514.267212,237.971481 514.519531,238.092361 
	C514.963623,238.305069 515.455200,238.458588 515.942810,238.534515 
	C527.804077,240.381439 537.427124,246.356934 543.783386,256.232727 
	C549.597717,265.266602 554.393799,275.048187 558.793823,284.878418 
	C565.452881,299.755585 570.685425,315.296692 577.780640,329.947144 
	C588.220581,351.503876 604.580627,366.630646 629.614563,371.972870 
M274.196350,957.705994 
	C274.373138,954.549927 274.628571,951.395996 274.714264,948.237427 
	C275.441284,921.440979 276.112488,894.642944 276.852478,867.846802 
	C277.279938,852.366943 277.222015,852.281189 261.885101,854.994141 
	C220.674911,862.283569 193.761139,901.676941 202.052963,942.569458 
	C208.293533,973.345764 238.511063,999.172180 269.739838,1000.593872 
	C273.131073,1000.748230 273.121704,998.914612 273.180267,996.606140 
	C273.501099,983.958984 273.850494,971.312561 274.196350,957.705994 
M288.885406,405.471832 
	C289.571594,378.014465 290.179382,350.554718 291.025543,323.102264 
	C291.157654,318.816101 289.704346,317.643921 285.633606,317.834015 
	C261.746765,318.949402 242.936829,329.635803 228.642624,348.359589 
	C204.587799,379.868652 211.799438,425.952484 244.211395,449.483307 
	C255.627274,457.771118 268.186401,463.043549 282.384827,464.147095 
	C285.728088,464.406952 287.140472,463.490326 287.225220,459.856140 
	C287.640198,442.054382 288.293854,424.258118 288.885406,405.471832 
M283.878387,598.460510 
	C284.124237,588.970581 284.390900,579.481140 284.611786,569.990601 
	C285.150421,546.848633 285.608368,523.704529 286.253998,500.565582 
	C286.358582,496.817383 284.768768,495.787903 281.491272,496.298065 
	C276.073669,497.141327 270.572418,497.664856 265.266388,498.972321 
	C227.618057,508.249481 203.391312,546.377197 211.220139,584.295349 
	C217.728333,615.817200 245.506332,639.960938 277.295258,642.958984 
	C281.355499,643.341980 282.852997,642.233521 282.880096,637.903809 
	C282.960358,625.082458 283.502380,612.263977 283.878387,598.460510 
M279.258850,763.813599 
	C280.082489,735.680237 280.876923,707.545959 281.768616,679.414734 
	C281.874054,676.088501 280.554352,675.045349 277.359192,675.129333 
	C259.821472,675.590332 244.377670,681.767090 231.232635,693.049561 
	C212.330536,709.273315 202.895370,730.123291 205.352890,755.067871 
	C208.875366,790.822266 236.950394,817.763977 273.092499,821.609985 
	C276.924011,822.017700 278.053802,820.993652 278.108154,817.216003 
	C278.359802,799.729187 278.846588,782.245789 279.258850,763.813599 
z"/>
<path fill="#707F3C" opacity="1.000000" stroke="none" 
	d="
M792.538818,756.437988 
	C812.516663,788.434875 839.167114,812.178284 874.612122,824.628235 
	C918.518799,840.050415 960.879333,835.529846 1000.984680,811.771545 
	C1019.725525,800.669495 1035.145630,785.854736 1048.066040,768.380066 
	C1049.013062,767.099243 1050.021118,765.863220 1051.717773,763.686462 
	C1051.968018,766.217041 1052.227783,767.600159 1052.223511,768.982483 
	C1052.128906,799.480286 1052.780884,830.005554 1051.699951,860.469116 
	C1050.187500,903.087402 1043.127075,944.780518 1022.999878,983.027893 
	C995.012451,1036.211670 951.216431,1067.140869 891.132507,1074.179932 
	C846.784119,1079.375488 806.694641,1067.804443 769.813416,1043.425415 
	C738.138977,1022.488281 712.108154,995.595032 689.579895,965.448120 
	C671.855347,941.729370 655.792480,916.768982 638.978149,892.369324 
	C638.365784,891.480591 637.612122,890.689209 636.193176,888.962952 
	C637.954468,906.158630 639.705444,922.168579 641.214844,938.201233 
	C645.120605,979.687866 631.468079,1014.195129 599.564941,1041.142822 
	C578.028870,1059.333618 552.598328,1068.452148 524.792480,1069.719482 
	C496.534637,1071.007568 468.185791,1071.348022 439.905182,1070.753418 
	C417.270111,1070.277710 394.488403,1068.368896 373.331696,1059.127563 
	C331.938385,1041.046875 306.165985,1009.998291 301.278320,964.740662 
	C298.626526,940.186523 300.141205,915.155396 300.215973,890.340698 
	C300.307831,859.848450 300.814362,829.356995 301.226593,798.866394 
	C301.487854,779.541504 301.887909,760.218323 302.269440,740.895264 
	C302.321198,738.275452 302.628021,735.660583 303.676392,732.874268 
	C304.368500,734.301392 305.072845,735.722717 305.750977,737.156433 
	C321.741364,770.963196 345.066528,798.300781 378.379089,815.793640 
	C421.147644,838.251831 465.328674,840.005615 509.305786,819.737000 
	C554.786194,798.775452 583.474609,762.446960 598.270142,715.278015 
	C613.612061,666.367126 609.733276,618.473267 586.726685,572.543030 
	C571.170349,541.486450 548.506287,516.683533 517.516174,500.598389 
	C471.764648,476.851501 425.422729,476.544617 379.428589,500.140472 
	C348.315948,516.101868 325.775604,540.743591 309.711792,571.556335 
	C309.261810,572.419434 308.697540,573.222961 307.817657,574.654480 
	C307.454437,573.521118 307.114288,572.980957 307.137360,572.456848 
	C308.258423,547.001587 309.373260,521.546082 310.573700,496.094543 
	C311.287567,480.959137 311.900848,465.813110 312.980713,450.701996 
	C315.531982,415.000641 317.026978,379.158203 321.344940,343.664276 
	C327.724091,291.227631 365.236938,253.118347 416.975403,242.784241 
	C437.690887,238.646576 458.556366,237.536636 479.558136,237.144943 
	C483.608582,237.069397 484.276337,238.550919 483.824707,242.175400 
	C476.258423,302.892365 497.587891,352.509094 543.101257,391.946350 
	C577.075073,421.384674 617.317993,436.495850 662.144653,439.226471 
	C719.966797,442.748749 771.441467,426.378235 814.386597,387.312897 
	C852.916992,352.263519 871.998169,308.085327 869.906006,255.492783 
	C869.676086,249.711807 868.783875,243.957184 868.168274,237.889709 
	C869.535583,237.642624 870.621887,237.274490 871.708008,237.275299 
	C895.743408,237.293121 919.684143,238.765961 943.168091,244.109619 
	C993.716492,255.611679 1028.993408,295.142731 1033.997559,346.824585 
	C1037.430298,382.276093 1039.746460,417.841919 1042.159424,453.383972 
	C1044.042847,481.125977 1045.317871,508.909454 1046.829468,536.676331 
	C1046.964233,539.154053 1046.847412,541.645447 1046.847412,545.583801 
	C1044.539429,543.033142 1042.920776,541.365234 1041.436157,539.585327 
	C1019.876221,513.738098 993.115051,495.721741 960.386536,487.572968 
	C913.493530,475.897491 870.494263,485.511230 832.697998,515.064941 
	C791.598511,547.201538 770.486633,590.649231 765.933228,642.245056 
	C762.336731,682.997986 771.184753,721.034790 792.538818,756.437988 
z"/>
<path fill="#70803A" opacity="1.000000" stroke="none" 
	d="
M766.962585,363.969147 
	C742.732300,379.067902 716.606262,384.716309 688.820923,383.385284 
	C688.571228,382.949005 688.321594,382.512726 688.071960,382.076447 
	C693.825195,376.932007 699.614868,371.827545 705.325012,366.635681 
	C722.813110,350.734863 740.852478,335.384125 757.574707,318.713318 
	C773.931030,302.407318 786.162659,283.146057 791.026550,260.040741 
	C792.178528,254.568741 792.650818,248.953674 793.435730,243.404419 
	C793.005371,243.265762 792.575012,243.127121 792.144592,242.988480 
	C789.013489,248.530228 786.000122,254.142441 782.732117,259.602264 
	C761.815002,294.548706 734.531433,324.062866 704.337280,351.052429 
	C697.263489,357.375397 690.040955,363.564056 682.533020,369.355835 
	C678.706055,372.308105 674.094238,374.242950 668.536438,377.369385 
	C667.268250,368.828949 665.750488,361.869293 665.273743,354.839081 
	C663.082458,322.525940 670.375732,292.465363 691.295959,267.492126 
	C703.059509,253.449448 717.866089,241.926987 731.505676,229.492767 
	C745.521851,216.715179 760.345703,204.772171 773.771362,191.413910 
	C785.280457,179.962646 793.188904,165.913544 794.412842,149.171722 
	C794.820862,143.590561 793.921021,137.911896 793.585693,132.279785 
	C793.510864,131.022263 793.295715,129.773102 794.223633,127.906288 
	C797.104431,131.625778 800.323181,135.132812 802.815430,139.096603 
	C840.359314,198.809250 843.005981,259.720062 808.295227,321.522430 
	C798.430908,339.085785 784.229797,352.880432 766.962585,363.969147 
z"/>
<path fill="#FEFFFD" opacity="1.000000" stroke="none" 
	d="
M458.397522,770.928284 
	C410.193146,774.631165 370.554535,741.269226 356.098969,700.662415 
	C345.340729,670.441711 345.428070,640.302551 358.019287,610.997070 
	C373.696167,574.509766 400.886871,551.482910 441.069458,545.706543 
	C446.468292,544.930481 452.039948,545.356812 457.951050,545.630981 
	C458.379517,620.999878 458.388519,695.964050 458.397522,770.928284 
z"/>
<path fill="#FEFFFD" opacity="1.000000" stroke="none" 
	d="
M936.377991,773.967590 
	C919.593506,775.010376 903.602966,771.978210 888.378235,764.788391 
	C865.085876,753.788696 848.756653,735.865417 837.886475,712.957825 
	C825.433960,686.715820 823.193481,659.039368 830.302856,631.118835 
	C838.511353,598.881897 856.681641,573.591003 886.882080,558.213013 
	C900.710083,551.171814 915.574524,547.678040 931.221985,548.241638 
	C932.690002,548.294495 934.144592,548.718323 935.931580,549.470093 
	C936.278381,552.297791 936.316284,554.625244 936.317017,556.952698 
	C936.339600,629.291016 936.358521,701.629272 936.377991,773.967590 
z"/>
<path fill="#707F3D" opacity="1.000000" stroke="none" 
	d="
M936.863647,773.988892 
	C936.358521,701.629272 936.339600,629.291016 936.317017,556.952698 
	C936.316284,554.625244 936.278381,552.297791 936.295288,549.572693 
	C942.367920,549.906189 948.430908,550.467773 954.423279,551.457214 
	C956.623047,551.820496 958.655640,553.196533 961.322388,554.280640 
	C962.274841,554.645569 962.669312,554.840515 963.063843,555.035461 
	C963.063843,555.035461 963.008423,554.950500 963.155151,555.221069 
	C963.879517,555.682007 964.457031,555.872314 965.034607,556.062683 
	C965.034607,556.062683 965.007629,555.982117 965.147705,556.280396 
	C972.369934,562.853699 979.452026,569.128723 986.619751,575.376892 
	C986.705444,575.350037 986.558655,575.453430 986.635010,575.763916 
	C987.800720,577.370605 988.889954,578.666809 990.085205,580.292236 
	C999.160400,593.445251 1005.205872,607.601746 1008.950623,622.723999 
	C1016.111694,651.642517 1015.192322,680.368469 1006.251709,709.075806 
	C1005.812805,710.210571 1005.532349,711.109192 1005.095215,712.346191 
	C1004.121948,715.060242 1003.305298,717.435913 1002.289490,720.035278 
	C1001.745239,721.174500 1001.400085,722.090027 1000.811035,723.248779 
	C997.091248,729.661682 993.615479,735.831360 989.904297,742.240234 
	C988.669373,743.963745 987.669800,745.447937 986.387451,747.033936 
	C985.386475,748.077087 984.668213,749.018555 983.976685,749.976929 
	C984.003418,749.993774 983.958252,749.948242 983.661499,750.100647 
	C975.906311,756.467773 968.447754,762.682434 960.989258,768.897156 
	C955.099243,770.516785 949.234497,772.239136 943.304565,773.696228 
	C941.408203,774.162170 939.339233,773.925476 936.863647,773.988892 
z"/>
<path fill="#717F3D" opacity="1.000000" stroke="none" 
	d="
M458.824158,770.926392 
	C458.388519,695.964050 458.379517,620.999878 458.378479,545.581543 
	C467.728241,545.027832 476.288086,547.892334 485.106995,552.289429 
	C490.890381,556.451843 496.081421,560.345215 501.447784,564.548340 
	C522.167236,586.330017 531.765564,612.627747 534.947449,641.574219 
	C537.429993,664.158020 534.801575,686.324463 527.818604,708.270020 
	C526.014221,712.671387 524.440857,716.809387 522.904419,720.946655 
	C522.941284,720.945984 522.903687,720.882446 522.655151,721.062317 
	C522.013184,722.170288 521.619873,723.098389 521.097290,724.208862 
	C520.967957,724.391235 520.920410,724.835754 520.652100,725.047791 
	C517.934265,729.513062 515.484863,733.766235 513.014160,738.015137 
	C512.992920,738.010803 513.024841,738.041199 512.757080,738.203491 
	C511.708435,739.585938 510.927460,740.806091 509.906555,742.214050 
	C509.079803,743.212891 508.493042,744.023987 507.643860,744.969482 
	C506.983276,745.758423 506.585083,746.413025 505.903809,747.184509 
	C505.110687,747.931213 504.600616,748.561035 503.790344,749.324463 
	C499.100311,753.693604 494.710449,757.929138 490.320587,762.164673 
	C489.352325,762.377319 488.384064,762.589966 486.981384,763.094482 
	C486.284363,763.491882 486.075562,763.663025 485.920593,763.899780 
	C477.427277,767.747192 468.981384,771.774536 458.824158,770.926392 
z"/>
<path fill="#71803A" opacity="1.000000" stroke="none" 
	d="
M629.197388,371.890747 
	C604.580627,366.630646 588.220581,351.503876 577.780640,329.947144 
	C570.685425,315.296692 565.452881,299.755585 558.793823,284.878418 
	C554.393799,275.048187 549.597717,265.266602 543.783386,256.232727 
	C537.427124,246.356934 527.804077,240.381439 515.942810,238.534515 
	C515.455200,238.458588 514.963623,238.305069 514.519531,238.092361 
	C514.267212,237.971481 514.107788,237.656784 513.219360,236.652924 
	C520.381348,234.903748 527.008484,232.789093 533.800049,231.709000 
	C571.115234,225.774597 605.109985,232.787308 632.364746,260.380829 
	C658.932373,287.278595 664.678650,320.123932 656.277466,356.127655 
	C655.678467,358.694702 654.890991,361.217773 652.988464,364.086243 
	C650.923767,358.847748 648.801575,353.631042 646.804443,348.366913 
	C638.708862,327.028015 630.840759,305.565918 617.396545,286.806335 
	C611.529724,278.619873 604.570801,271.480133 595.453003,266.793060 
	C594.055298,266.074524 592.588684,265.489929 591.032532,264.788696 
	C601.898132,282.346130 613.153870,299.172089 622.980347,316.795013 
	C632.832336,334.463684 642.151184,352.577942 646.043213,374.091827 
	C639.951599,373.306122 634.783081,372.639496 629.197388,371.890747 
z"/>
<path fill="#70803A" opacity="1.000000" stroke="none" 
	d="
M274.193207,958.185913 
	C273.850494,971.312561 273.501099,983.958984 273.180267,996.606140 
	C273.121704,998.914612 273.131073,1000.748230 269.739838,1000.593872 
	C238.511063,999.172180 208.293533,973.345764 202.052963,942.569458 
	C193.761139,901.676941 220.674911,862.283569 261.885101,854.994141 
	C277.222015,852.281189 277.279938,852.366943 276.852478,867.846802 
	C276.112488,894.642944 275.441284,921.440979 274.714264,948.237427 
	C274.628571,951.395996 274.373138,954.549927 274.193207,958.185913 
z"/>
<path fill="#70803B" opacity="1.000000" stroke="none" 
	d="
M288.874268,405.965881 
	C288.293854,424.258118 287.640198,442.054382 287.225220,459.856140 
	C287.140472,463.490326 285.728088,464.406952 282.384827,464.147095 
	C268.186401,463.043549 255.627274,457.771118 244.211395,449.483307 
	C211.799438,425.952484 204.587799,379.868652 228.642624,348.359589 
	C242.936829,329.635803 261.746765,318.949402 285.633606,317.834015 
	C289.704346,317.643921 291.157654,318.816101 291.025543,323.102264 
	C290.179382,350.554718 289.571594,378.014465 288.874268,405.965881 
z"/>
<path fill="#70803B" opacity="1.000000" stroke="none" 
	d="
M283.871094,598.952454 
	C283.502380,612.263977 282.960358,625.082458 282.880096,637.903809 
	C282.852997,642.233521 281.355499,643.341980 277.295258,642.958984 
	C245.506332,639.960938 217.728333,615.817200 211.220139,584.295349 
	C203.391312,546.377197 227.618057,508.249481 265.266388,498.972321 
	C270.572418,497.664856 276.073669,497.141327 281.491272,496.298065 
	C284.768768,495.787903 286.358582,496.817383 286.253998,500.565582 
	C285.608368,523.704529 285.150421,546.848633 284.611786,569.990601 
	C284.390900,579.481140 284.124237,588.970581 283.871094,598.952454 
z"/>
<path fill="#70803B" opacity="1.000000" stroke="none" 
	d="
M279.253998,764.287354 
	C278.846588,782.245789 278.359802,799.729187 278.108154,817.216003 
	C278.053802,820.993652 276.924011,822.017700 273.092499,821.609985 
	C236.950394,817.763977 208.875366,790.822266 205.352890,755.067871 
	C202.895370,730.123291 212.330536,709.273315 231.232635,693.049561 
	C244.377670,681.767090 259.821472,675.590332 277.359192,675.129333 
	C280.554352,675.045349 281.874054,676.088501 281.768616,679.414734 
	C280.876923,707.545959 280.082489,735.680237 279.253998,764.287354 
z"/>
<path fill="#FCFDF8" opacity="1.000000" stroke="none" 
	d="
M1001.055054,723.005615 
	C1001.400085,722.090027 1001.745239,721.174500 1002.675293,720.014893 
	C1004.495911,717.177795 1005.731567,714.584778 1007.162292,711.738159 
	C1007.041626,710.602905 1006.725891,709.721252 1006.410156,708.839600 
	C1015.192322,680.368469 1016.111694,651.642517 1008.950623,622.723999 
	C1005.205872,607.601746 999.160400,593.445251 990.097778,579.910645 
	C988.855835,577.950989 987.707275,576.702209 986.558655,575.453430 
	C986.558655,575.453430 986.705444,575.350037 986.680847,575.016052 
	C985.557007,572.453979 984.457764,570.225830 982.957703,567.185181 
	C991.925537,570.886230 994.915222,579.261963 1001.441223,584.366150 
	C1013.138306,593.514648 1017.859924,608.349548 1023.537048,621.700684 
	C1026.996460,629.836365 1028.540161,639.175659 1029.046997,648.082275 
	C1029.729736,660.081421 1028.964600,672.213196 1028.058228,684.230469 
	C1027.631104,689.891418 1025.426392,695.418335 1023.942505,701.358887 
	C1022.923340,704.505432 1021.988708,707.299011 1021.054077,710.092651 
	C1020.844727,710.786743 1020.635376,711.480896 1020.060120,712.509521 
	C1019.459900,712.882263 1019.225952,712.922852 1018.697754,713.063232 
	C1017.920349,714.447510 1017.437744,715.734253 1016.861694,717.320923 
	C1016.151733,718.710510 1015.535217,719.800232 1014.594849,721.002441 
	C1013.521423,722.409058 1012.771912,723.703064 1011.940552,725.335083 
	C1010.877563,727.714661 1009.896423,729.756226 1008.915405,731.797852 
	C1008.816101,731.989197 1008.716858,732.180603 1008.164612,732.737061 
	C1006.768372,734.322632 1005.825134,735.543091 1004.881836,736.763550 
	C1004.881897,736.763611 1004.839172,736.882385 1004.519958,737.089844 
	C1001.499512,739.698792 998.373901,741.772583 996.203491,744.583862 
	C993.428101,748.178528 990.378845,748.318542 986.670227,746.932190 
	C987.669800,745.447937 988.669373,743.963745 990.278076,742.237000 
	C992.482910,741.055237 994.714722,740.499207 995.555115,739.104675 
	C998.073792,734.925171 1000.143188,730.460205 1002.137329,725.994751 
	C1002.448303,725.298340 1001.448669,724.016663 1001.055054,723.005615 
z"/>
<path fill="#F3F8DD" opacity="1.000000" stroke="none" 
	d="
M1024.027100,701.005981 
	C1025.426392,695.418335 1027.631104,689.891418 1028.058228,684.230469 
	C1028.964600,672.213196 1029.729736,660.081421 1029.046997,648.082275 
	C1028.540161,639.175659 1026.996460,629.836365 1023.537048,621.700684 
	C1017.859924,608.349548 1013.138306,593.514648 1001.441223,584.366150 
	C994.915222,579.261963 991.925537,570.886230 982.957703,567.185181 
	C984.457764,570.225830 985.557007,572.453979 986.595215,575.042908 
	C979.452026,569.128723 972.369934,562.853699 965.107300,556.293457 
	C974.396729,557.473572 981.370789,563.615417 988.816772,568.832458 
	C1002.395386,578.346558 1011.647461,591.687195 1019.112549,605.965088 
	C1026.781372,620.632324 1031.171265,636.592957 1031.627808,653.378723 
	C1031.981567,666.384827 1032.056396,679.378845 1028.518433,692.056702 
	C1027.721069,694.913696 1026.396362,697.623474 1024.895874,700.696167 
	C1024.477295,700.991394 1024.027100,701.005981 1024.027100,701.005981 
z"/>
<path fill="#F1F6D9" opacity="1.000000" stroke="none" 
	d="
M501.272430,564.238586 
	C496.081421,560.345215 490.890381,556.451843 485.485474,552.337585 
	C495.788544,554.450867 504.571838,560.218506 512.597351,566.929077 
	C538.458130,588.552307 551.158142,616.632629 553.973816,650.061768 
	C555.555298,668.838440 551.235657,686.278381 546.048218,703.812195 
	C545.968567,704.081238 545.578735,704.258545 545.008057,704.632629 
	C544.682495,704.786621 544.636597,704.765564 544.708801,704.353394 
	C545.099792,701.653992 544.956360,699.175842 545.809753,697.109375 
	C553.147461,679.340576 552.683289,660.764587 551.457947,642.182739 
	C550.492249,627.537109 544.964172,614.091003 538.336426,601.271973 
	C534.828308,594.486694 529.835632,588.378052 524.953491,582.422791 
	C520.993103,577.592041 516.399353,573.216492 511.697418,569.081482 
	C508.821228,566.552063 506.497864,562.016541 501.272430,564.238586 
z"/>
<path fill="#F1F6D9" opacity="1.000000" stroke="none" 
	d="
M490.523560,762.137512 
	C494.710449,757.929138 499.100311,753.693604 503.931213,749.592163 
	C505.569733,752.386414 506.937561,751.364746 508.570526,750.068726 
	C522.299622,739.172791 533.237427,726.034790 540.916199,710.226135 
	C541.686462,708.640381 542.822449,707.232117 543.809875,705.771973 
	C543.830994,705.802490 543.870117,705.865540 543.870117,705.865540 
	C541.778931,716.110901 535.710144,724.206421 529.582153,732.264526 
	C521.038940,743.498413 510.532288,752.300354 498.065735,759.043152 
	C495.625732,760.362854 493.364716,761.520569 490.523560,762.137512 
z"/>
<path fill="#F1F6D9" opacity="1.000000" stroke="none" 
	d="
M986.387451,747.033936 
	C990.378845,748.318542 993.428101,748.178528 996.203491,744.583862 
	C998.373901,741.772583 1001.499512,739.698792 1004.463257,737.117554 
	C1001.072693,741.289062 997.879456,746.165771 993.654419,749.863647 
	C987.878601,754.918640 981.552429,759.458801 975.006653,763.477722 
	C971.008423,765.932556 966.155457,766.995117 961.337830,768.790100 
	C968.447754,762.682434 975.906311,756.467773 983.715576,750.455322 
	C985.008057,751.368286 985.949768,752.078979 986.891418,752.789673 
	C987.117920,752.356689 987.344360,751.923767 987.570862,751.490784 
	C987.310120,751.119263 987.116394,750.520630 986.775818,750.420166 
	C985.867615,750.152344 984.896240,750.098755 983.950012,749.960022 
	C984.668213,749.018555 985.386475,748.077087 986.387451,747.033936 
z"/>
<path fill="#F1F6D9" opacity="1.000000" stroke="none" 
	d="
M1014.918701,720.889893 
	C1015.535217,719.800232 1016.151733,718.710510 1017.100708,717.091919 
	C1017.952881,715.363953 1018.472595,714.164856 1018.992432,712.965759 
	C1019.225952,712.922852 1019.459900,712.882263 1019.865295,712.817200 
	C1018.598450,715.832947 1017.160583,718.875610 1015.355835,721.715210 
	C1014.965515,721.304749 1014.942078,721.097351 1014.918701,720.889893 
z"/>
<path fill="#F1F6D9" opacity="1.000000" stroke="none" 
	d="
M1023.942505,701.358887 
	C1024.027100,701.005981 1024.477295,700.991394 1024.702271,700.983521 
	C1023.836548,703.908569 1022.745789,706.841492 1021.354553,709.933472 
	C1021.988708,707.299011 1022.923340,704.505432 1023.942505,701.358887 
z"/>
<path fill="#F1F6D9" opacity="1.000000" stroke="none" 
	d="
M1009.234924,731.719727 
	C1009.896423,729.756226 1010.877563,727.714661 1012.154785,725.233704 
	C1013.009521,724.552002 1013.568176,724.309692 1014.126831,724.067444 
	C1012.602722,726.592163 1011.078613,729.116882 1009.234924,731.719727 
z"/>
<path fill="#F1F6D9" opacity="1.000000" stroke="none" 
	d="
M1005.196777,736.703064 
	C1005.825134,735.543091 1006.768372,734.322632 1007.963623,732.990417 
	C1007.314270,734.133301 1006.412964,735.387939 1005.196777,736.703064 
z"/>
<path fill="#F3F8DD" opacity="1.000000" stroke="none" 
	d="
M1014.348022,723.778320 
	C1013.568176,724.309692 1013.009521,724.552002 1012.236694,724.895691 
	C1012.771912,723.703064 1013.521423,722.409058 1014.594849,721.002441 
	C1014.942078,721.097351 1014.965515,721.304749 1015.023132,721.824097 
	C1014.894592,722.587097 1014.731934,723.038147 1014.348022,723.778320 
z"/>
<path fill="#F1F6D9" opacity="1.000000" stroke="none" 
	d="
M486.040894,763.885803 
	C486.075562,763.663025 486.284363,763.491882 486.751465,763.401123 
	C486.738220,763.686584 486.473297,763.838562 486.040894,763.885803 
z"/>
<path fill="#F3F8DD" opacity="1.000000" stroke="none" 
	d="
M964.839111,555.830750 
	C964.457031,555.872314 963.879517,555.682007 963.112122,555.247803 
	C963.496094,555.202209 964.069885,555.400513 964.839111,555.830750 
z"/>
<path fill="#F3F8DD" opacity="1.000000" stroke="none" 
	d="
M962.829590,555.023071 
	C962.669312,554.840515 962.274841,554.645569 961.725281,554.306763 
	C961.911926,554.445435 962.253601,554.728027 962.829590,555.023071 
z"/>
<path fill="#F1F6D9" opacity="1.000000" stroke="none" 
	d="
M544.706543,704.794312 
	C544.612549,705.091187 544.442688,705.345703 544.045532,705.715576 
	C543.870117,705.865540 543.830994,705.802490 543.942993,705.602112 
	C544.241882,705.183289 544.435791,704.971252 544.636597,704.765564 
	C544.636597,704.765564 544.682495,704.786621 544.706543,704.794312 
z"/>
<path fill="#F3F8DD" opacity="1.000000" stroke="none" 
	d="
M1000.811035,723.248779 
	C1001.448669,724.016663 1002.448303,725.298340 1002.137329,725.994751 
	C1000.143188,730.460205 998.073792,734.925171 995.555115,739.104675 
	C994.714722,740.499207 992.482910,741.055237 990.513428,741.997803 
	C993.615479,735.831360 997.091248,729.661682 1000.811035,723.248779 
z"/>
<path fill="#F3F8DD" opacity="1.000000" stroke="none" 
	d="
M1006.967285,711.991760 
	C1005.731567,714.584778 1004.495911,717.177795 1002.874390,719.791138 
	C1003.305298,717.435913 1004.121948,715.060242 1005.381348,712.345337 
	C1006.205200,712.001343 1006.586243,711.996521 1006.967285,711.991760 
z"/>
<path fill="#F3F8DD" opacity="1.000000" stroke="none" 
	d="
M986.635010,575.763916 
	C987.707275,576.702209 988.855835,577.950989 989.991821,579.581360 
	C988.889954,578.666809 987.800720,577.370605 986.635010,575.763916 
z"/>
<path fill="#F1F6D9" opacity="1.000000" stroke="none" 
	d="
M1007.162354,711.738159 
	C1006.586243,711.996521 1006.205200,712.001343 1005.538025,712.006958 
	C1005.532349,711.109192 1005.812805,710.210571 1006.251709,709.075806 
	C1006.725891,709.721252 1007.041626,710.602905 1007.162354,711.738159 
z"/>
<path fill="#FBFCF4" opacity="1.000000" stroke="none" 
	d="
M544.708801,704.353394 
	C544.435791,704.971252 544.241882,705.183289 543.921875,705.571655 
	C542.822449,707.232117 541.686462,708.640381 540.916199,710.226135 
	C533.237427,726.034790 522.299622,739.172791 508.570526,750.068726 
	C506.937561,751.364746 505.569733,752.386414 504.231384,749.458496 
	C504.600616,748.561035 505.110687,747.931213 506.195099,747.085388 
	C507.148376,746.191223 507.527344,745.513184 507.906281,744.835083 
	C508.493042,744.023987 509.079803,743.212891 510.257202,742.173462 
	C511.573486,740.643799 512.299133,739.342529 513.024841,738.041199 
	C513.024841,738.041199 512.992920,738.010803 513.350586,737.941895 
	C518.091614,734.622253 521.124084,730.624084 520.920410,724.835754 
	C520.920410,724.835754 520.967957,724.391235 521.399414,724.086060 
	C522.188416,722.814758 522.546021,721.848572 522.903687,720.882446 
	C522.903687,720.882446 522.941284,720.945984 523.209167,720.783813 
	C525.831116,716.717407 529.821472,713.406311 528.049683,708.006592 
	C534.801575,686.324463 537.429993,664.158020 534.947449,641.574219 
	C531.765564,612.627747 522.167236,586.330017 501.447784,564.548340 
	C506.497864,562.016541 508.821228,566.552063 511.697418,569.081482 
	C516.399353,573.216492 520.993103,577.592041 524.953491,582.422791 
	C529.835632,588.378052 534.828308,594.486694 538.336426,601.271973 
	C544.964172,614.091003 550.492249,627.537109 551.457947,642.182739 
	C552.683289,660.764587 553.147461,679.340576 545.809753,697.109375 
	C544.956360,699.175842 545.099792,701.653992 544.708801,704.353394 
z"/>
<path fill="#F1F6D9" opacity="1.000000" stroke="none" 
	d="
M520.652100,725.047791 
	C521.124084,730.624084 518.091614,734.622253 513.371826,737.946289 
	C515.484863,733.766235 517.934265,729.513062 520.652100,725.047791 
z"/>
<path fill="#F1F6D9" opacity="1.000000" stroke="none" 
	d="
M527.818604,708.270020 
	C529.821472,713.406311 525.831116,716.717407 523.172241,720.784424 
	C524.440857,716.809387 526.014221,712.671387 527.818604,708.270020 
z"/>
<path fill="#F1F6D9" opacity="1.000000" stroke="none" 
	d="
M512.757080,738.203491 
	C512.299133,739.342529 511.573486,740.643799 510.497162,741.985718 
	C510.927460,740.806091 511.708435,739.585938 512.757080,738.203491 
z"/>
<path fill="#F1F6D9" opacity="1.000000" stroke="none" 
	d="
M522.655151,721.062317 
	C522.546021,721.848572 522.188416,722.814758 521.528687,723.903687 
	C521.619873,723.098389 522.013184,722.170288 522.655151,721.062317 
z"/>
<path fill="#F1F6D9" opacity="1.000000" stroke="none" 
	d="
M507.643860,744.969482 
	C507.527344,745.513184 507.148376,746.191223 506.478149,746.968445 
	C506.585083,746.413025 506.983276,745.758423 507.643860,744.969482 
z"/>
<path fill="#F3F8DD" opacity="1.000000" stroke="none" 
	d="
M1018.697693,713.063232 
	C1018.472595,714.164856 1017.952881,715.363953 1017.194092,716.791992 
	C1017.437744,715.734253 1017.920349,714.447510 1018.697693,713.063232 
z"/>
<path fill="#FCFDF8" opacity="1.000000" stroke="none" 
	d="
M983.976685,749.976929 
	C984.896240,750.098755 985.867615,750.152344 986.775818,750.420166 
	C987.116394,750.520630 987.310120,751.119263 987.570862,751.490784 
	C987.344360,751.923767 987.117920,752.356689 986.891418,752.789673 
	C985.949768,752.078979 985.008057,751.368286 984.012329,750.302917 
	C983.958252,749.948242 984.003418,749.993774 983.976685,749.976929 
z"/>
</svg>